<?xml version="1.0" encoding="UTF-8" standalone="no"?>
<svg
   xmlns:dc="http://purl.org/dc/elements/1.1/"
   xmlns:cc="http://creativecommons.org/ns#"
   xmlns:rdf="http://www.w3.org/1999/02/22-rdf-syntax-ns#"
   xmlns:svg="http://www.w3.org/2000/svg"
   xmlns="http://www.w3.org/2000/svg"
   xmlns:sodipodi="http://sodipodi.sourceforge.net/DTD/sodipodi-0.dtd"
   xmlns:inkscape="http://www.inkscape.org/namespaces/inkscape"
   viewBox="0 0 100 100"
   version="1.1"
   id="svg36"
   sodipodi:docname="football.svg"
   inkscape:version="0.92.3 (2405546, 2018-03-11)"
   width="100"
   height="100">
  <metadata
     id="metadata42">
    <rdf:RDF>
      <cc:Work
         rdf:about="">
        <dc:format>image/svg+xml</dc:format>
        <dc:type
           rdf:resource="http://purl.org/dc/dcmitype/StillImage" />
        <dc:title></dc:title>
      </cc:Work>
    </rdf:RDF>
  </metadata>
  <defs
     id="defs40" />
  <sodipodi:namedview
     pagecolor="#ffffff"
     bordercolor="#666666"
     borderopacity="1"
     objecttolerance="10"
     gridtolerance="10"
     guidetolerance="10"
     inkscape:pageopacity="0"
     inkscape:pageshadow="2"
     inkscape:window-width="1864"
     inkscape:window-height="1051"
     id="namedview38"
     showgrid="false"
     inkscape:zoom="4.1558441"
     inkscape:cx="53.643515"
     inkscape:cy="48.832439"
     inkscape:window-x="56"
     inkscape:window-y="0"
     inkscape:window-maximized="1"
     inkscape:current-layer="svg36" />
  <g
     id="g75"
     transform="matrix(0.1444276,0,0,0.14416826,-27.346596,-17.350597)">
    <path
       d="m 661.85,256.85 -0.2,0.3 -0.2,0.3 -0.3,0.2 -0.3,0.2 -0.2,0.3 -0.2,0.3 -0.3,0.2 -0.3,0.2 -0.2,0.3 -0.2,0.3 -0.3,0.2 -0.5,1 -0.5,1 -0.3,0.2 -0.2,0.3 -0.2,0.3 -0.3,0.2 -0.3,0.2 -0.2,0.3 0.2,0.3 0.3,0.2 0.3,0.2 0.2,0.3 0.2,0.3 0.3,0.2 0.3,0.2 0.2,0.3 h 7.5 q 7.5,0 10.5,0.5 l 3,0.5 2.5,0.5 2.5,0.5 0.2,0.3 0.3,0.2 v 4 l -0.3,0.2 -0.2,0.3 -3.2,4.3 q -3.3,4.2 -3.3,11.2 0,7 0,14 v 7 l -0.3,0.2 -0.2,0.3 -0.2,0.3 -0.3,0.2 -0.3,0.2 -0.2,0.3 -0.2,0.3 -0.3,0.2 -0.3,0.2 -0.2,0.3 h -5.5 q -5.5,0 -29,-4 -23.5,-4 -32.5,-3 -9,1 -10.2,0.3 l -1.3,-0.8 -0.3,0.2 -0.2,0.3 -0.2,0.3 -0.3,0.2 -0.5,-1 -0.5,-1 h -0.5 l -0.2,-4 -0.3,-4 -0.5,-1 -0.5,-1 -0.3,0.2 -0.2,0.3 -0.2,0.3 -0.3,0.2 -0.5,1 -0.5,1 h -0.5 l -0.5,-0.2 q -0.5,-0.3 -2,-1.3 -1.5,-1 -26.5,-10.5 -25,-9.5 -59,-19.5 -34,-10 -46.5,-12 -12.5,-2 -22.5,7.5 -10,9.5 -30.5,33.5 -20.5,24 -37,47 -16.5,23 -18.5,28.3 l -2,5.2 0.2,5.5 0.3,5.5 0.3,0.2 0.2,0.3 0.2,0.3 0.3,0.2 0.3,1 0.2,1 h -2 l -0.2,-1 -0.3,-1 -0.3,-0.2 -0.2,-0.3 -0.2,-0.3 -0.3,-0.2 -4.3,-1.8 q -4.2,-1.7 -15.2,3.8 -11,5.5 -16.2,10.8 -5.3,5.2 -6.8,10.7 -1.5,5.5 -0.5,27.5 1,22 4,41 3,19 8,29 5,10 12.7,18.8 7.8,8.7 21.3,17.7 13.5,9 22,12.5 8.5,3.5 14,3 5.5,-0.5 10.7,-4.8 5.3,-4.2 5.8,-4.7 0.5,-0.5 1,-1.5 l 0.5,-1 0.3,-0.2 0.2,-0.3 0.2,-0.3 0.3,-0.2 0.3,-0.2 0.2,-0.3 0.2,-0.3 0.3,-0.2 0.3,-0.2 0.2,-0.3 0.2,-0.3 0.3,-0.2 0.3,-0.2 0.2,-0.3 0.2,-0.3 0.3,-0.2 0.3,-0.2 0.2,-0.3 0.2,-0.3 0.3,-0.2 h 0.5 l -0.2,1 -0.3,1 -0.5,1.5 -0.5,1.5 -0.5,2.5 q -0.5,2.5 -6.2,21 -5.8,18.5 -6.8,18.7 -1,0.3 -2,2 -1,1.8 -2,1.8 -1,0 -1.2,1 -0.3,1 -4,4.8 -3.8,3.7 -17.8,3.7 -14,0 -26,-3.5 -12,-3.5 -22,-10.5 -10,-7 -24.8,-21.7 -14.7,-14.8 -25.2,-28.3 -10.5,-13.5 -15.5,-23.5 -5,-10 -10.7,-25.5 -5.8,-15.5 -7.3,-15.5 -1.5,0 -4,-8.5 -2.5,-8.5 -1.5,-8.5 1,0 1.2,-5 l 0.3,-5 v -2 l -0.3,-1.5 -0.2,-1.5 0.2,-2 q 0.3,-2 3.8,-15 3.5,-13 6.5,-19.5 3,-6.5 3,-11 0,-4.5 -3.5,-20 -3.5,-15.5 -4.8,-34.5 l -1.2,-19 0.5,-0.2 0.5,-0.3 0.2,-0.3 0.3,-0.2 0.5,-1.5 0.5,-1.5 0.3,-1.5 0.2,-1.5 3.5,-1.5 q 3.5,-1.5 4.5,-4.7 1,-3.3 11,-18.8 10,-15.5 20.5,-28.5 10.5,-13 15,-18 4.5,-5 5.5,-5.3 1,-0.2 1,-1.2 0,-1 15.5,-13.8 15.5,-12.7 20,-15.4 4.5,-2.8 5,-4 0.5,-1.3 1.5,-1.6 1,-0.2 2.5,-2 1.5,-1.7 8.3,-6.4 6.7,-4.8 14,-8.6 7.2,-3.7 11,-5 3.7,-1.2 5,-2 1.2,-0.7 3.2,-1.2 l 2,-0.5 0.2,-0.3 0.3,-0.2 0.3,-0.2 0.2,-0.3 0.2,-0.3 0.3,-0.2 0.3,-0.2 0.2,-0.3 0.2,-0.3 0.3,-0.2 0.3,-0.2 0.2,-0.3 0.2,-0.3 0.3,-0.2 0.3,-0.5 0.2,-0.5 17,-2.8 q 17,-2.7 21.5,-2.7 4.5,0 11,-4.5 6.5,-4.5 8.5,-5.5 2,-1 9,-1.5 7,-0.5 14.5,-3 7.5,-2.5 34.5,-0.5 27,2 52,7 25,5 50,14 25,9 39.2,17.3 14.3,8.2 21.3,16.2 7,8 12,19 5,11 4.3,15.2 -0.8,4.3 -6.3,8.3 -5.5,4 -10.3,7.3 -4.7,3.2 -5,3.4 z"
       id="path4"
       inkscape:connector-curvature="0"
       style="fill:#f1f1f1;fill-rule:evenodd;stroke:#f1f1f1;stroke-width:0.5" />
    <path
       d="m 361.45,411.85 3.7,4.8 0.3,0.2 0.2,0.3 0.2,0.3 0.3,0.2 2.7,1.2 q 2.8,1.3 3.3,1.3 0.5,0 1,0.3 l 0.5,0.2 16.8,24 q 16.7,24 17,25 l 0.2,1 h 2 v 2 l -1,-0.2 q -1,-0.3 -1.5,-0.3 h -0.5 l -0.2,0.3 -0.3,0.2 -0.3,-0.2 -0.2,-0.3 -0.2,-0.3 -0.3,-0.2 v 2 l 0.3,0.2 0.2,0.3 0.2,0.3 0.3,0.2 0.5,1.5 0.5,1.5 5,9.5 q 5,9.5 3,19.5 -2,10 -3.5,15 -1.5,5 -1.8,6.5 l -0.2,1.5 h -0.2 q -0.3,0 -0.6,0.5 l -0.2,0.5 h -0.2 q -0.3,0 -0.8,0.5 l -0.5,0.5 -0.3,0.2 -0.2,0.3 -0.2,0.3 -0.3,0.2 -0.3,0.2 -0.2,0.3 -0.2,0.3 -0.3,0.2 -0.3,0.2 -0.2,0.3 -0.2,0.3 -0.3,0.2 -0.3,0.2 -0.2,0.3 -0.2,0.3 -0.3,0.2 -0.5,1 q -0.5,1 -2.2,4.5 -1.8,3.5 -3.3,3.5 -1.5,0 -2,0.8 -0.5,0.7 -3,2.7 -2.5,2 -8.5,2.5 -6,0.5 -8.5,-0.5 -2.5,-1 -14,-7.5 -11.5,-6.5 -22.3,-16.2 -10.7,-9.8 -17.2,-21.8 -6.5,-12 -10,-39.5 -3.5,-27.5 -3.5,-39 0,-11.5 1,-16 1,-4.5 4.3,-9.3 3.2,-4.7 10.2,-9.2 7,-4.5 12,-5 5,-0.5 7,1 2,1.5 2.5,2.2 0.5,0.8 1.5,0.8 1,0 1.5,2.5 0.5,2.5 1.5,2.5 1,0 1,1.5 0,1.5 1,1.5 1,0 1.8,2 0.7,2 1.4,2.5 0.8,0.5 0.8,2 0,1.5 1,1.7 1,0.3 4.8,5 z"
       id="path6"
       inkscape:connector-curvature="0"
       style="fill:#fefefe;fill-rule:evenodd;stroke:#fefefe;stroke-width:0.5" />
    <path
       d="m 590.15,295.45 0.5,0.2 -2.2,58 q -2.3,58 -2.6,61.5 l -0.2,3.5 -0.2,5 q -0.3,5 -1.8,15 -1.5,10 -37.8,21.8 l -36.2,11.7 -2,0.5 -2,0.5 -1.5,0.5 -1.5,0.5 v 0.5 l -1.5,0.2 q -1.5,0.3 -36.5,10.6 l -35,10.2 -1,-0.2 q -1,-0.3 -8.8,-10 l -7.7,-9.8 -0.3,-0.2 -0.2,-0.3 -0.2,-0.3 -0.3,-0.2 -0.3,-0.2 -0.2,-0.3 -0.2,-0.3 -0.3,-0.2 -0.3,-0.2 -0.2,-0.3 v -0.5 l -0.2,-0.5 q -0.3,-0.5 -0.6,-0.5 h -0.2 l -0.2,-0.5 q -0.3,-0.5 -17.6,-25.5 l -17.2,-25 -0.2,-1 q -0.3,-1 -14,-23.5 l -13.8,-22.5 2,-5.2 q 2,-5.3 18.5,-28.3 16.5,-23 37,-47 20.5,-24 30.5,-33.5 10,-9.5 22.5,-7.5 12.5,2 46.5,12 34,10 59,19.5 25,9.5 26.5,10.5 1.5,1 2,1.3 z"
       id="path8"
       inkscape:connector-curvature="0"
       style="fill:#191919;fill-rule:evenodd;stroke:#191919;stroke-width:0.5" />
    <path
       d="m 439.15,669.45 0.5,0.2 v 0.2 q 0,0.3 0.5,0.6 l 0.5,0.2 v 0.2 q 0,0.3 0.5,0.6 l 0.5,0.2 21.5,17.2 q 21.5,17.3 36.7,27.6 15.3,10.2 13.3,16.2 -2,6 -14.7,26.8 -12.8,20.7 -16.8,26.4 -4,5.8 -7.5,7.6 -3.5,1.7 -12,1.2 -8.5,-0.5 -38,-9.5 -29.5,-9 -54,-20 -24.5,-11 -25.5,-11.5 l -1,-0.5 -1,-0.5 -1,-0.5 -0.2,-0.3 -0.3,-0.2 -0.3,-0.2 -0.2,-0.3 -1,-0.5 -1,-0.5 -0.2,-0.3 -0.3,-0.2 h -0.5 l -0.2,-0.5 -0.3,-0.5 -0.3,-0.2 -0.2,-0.3 -0.2,-0.3 -0.3,-0.2 -0.3,-0.2 -0.2,-0.3 -0.2,-0.3 -0.3,-0.2 -0.3,-0.2 -0.2,-0.3 -0.2,-0.3 -0.3,-0.2 -0.3,-0.2 -0.2,-0.3 -0.2,-0.3 -0.3,-0.2 -0.3,-0.2 -0.2,-0.3 -0.2,-0.3 -0.3,-0.2 -0.3,-0.2 q -0.2,-0.3 -11,-18 -10.7,-17.8 -19.7,-38.8 -9,-21 -10.7,-30.5 l -1.8,-9.5 11.5,-0.8 q 11.5,-0.7 16.5,-1.2 l 5,-0.5 4.5,-0.5 4.5,-0.5 v -0.5 l 30,-4.8 q 30,-4.7 34.5,-5.4 4.5,-0.8 8,3.4 3.5,4.3 19.5,18.8 16,14.5 16.5,14.8 z"
       id="path10"
       inkscape:connector-curvature="0"
       style="fill:#0f0f0f;fill-rule:evenodd;stroke:#0f0f0f;stroke-width:0.5" />
    <path
       d="m 810.15,488.85 1.5,-0.2 7.8,17.5 q 7.7,17.5 13.7,37.5 6,20 8,30.5 2,10.5 1.5,18 -0.5,7.5 -10.8,24.3 -10.2,16.7 -27.2,38.7 -17,22 -22.8,28.3 -5.7,6.2 -6,7.2 l -0.2,1 -0.5,0.2 -0.5,0.3 v 0.5 l -0.5,0.2 -0.5,0.3 v 0.5 l -0.5,0.2 -0.5,0.3 v 0.5 l -0.5,0.2 -0.5,0.3 v 0.5 l -0.5,0.2 q -0.5,0.3 -5,4.8 -4.5,4.5 -10.5,8 -6,3.5 -18,2 -12,-1.5 -36,-8.5 -24,-7 -34.8,-11.7 -10.7,-4.8 -7.7,-14.8 l 3,-10 0.5,-1.5 0.5,-1.5 0.3,-1.5 0.2,-1.5 h 0.2 q 0.3,0 0.6,-0.5 l 0.2,-0.5 0.2,-1 q 0.3,-1 1.3,-4.5 1,-3.5 11.3,-44.5 l 10.2,-41 0.2,-2 0.3,-2 0.5,-2.5 0.5,-2.5 2,-8 q 2,-8 7.3,-10.2 5.2,-2.3 6.2,-2.8 l 1,-0.5 1.5,-0.5 1.5,-0.5 1,-0.5 1,-0.5 1,-0.5 1,-0.5 v -0.5 l 29.5,-12.8 q 29.5,-12.7 48,-22.2 18.5,-9.5 20,-9.8 z"
       id="path12"
       inkscape:connector-curvature="0"
       style="fill:#171717;fill-rule:evenodd;stroke:#171717;stroke-width:0.5" />
    <path
       d="m 585.45,423.65 0.2,-5 0.8,9.5 q 0.7,9.5 1.2,13.5 l 0.5,4 0.3,0.2 0.2,0.3 0.2,0.3 0.3,0.2 0.5,-1.5 0.5,-1.5 0.3,0.2 0.2,0.3 0.5,0.3 0.5,0.2 2.8,3.5 q 2.7,3.5 3,6.7 0.2,3.3 0.7,3.8 0.5,0.5 -0.5,0.8 -1,0.2 0.5,3 1.5,2.7 36.3,33.4 34.7,30.8 42.2,38.8 7.5,8 8.5,9.5 1,1.5 1.5,12.5 l 0.5,11 h 0.5 l -10.2,41 q -10.3,41 -11.3,44.5 -1,3.5 -1.3,4.5 l -0.2,1 -0.5,0.2 q -0.5,0.3 -0.5,0.6 v 0.2 l -0.5,0.2 q -0.5,0.3 -0.7,0.6 l -0.3,0.2 -0.3,0.2 -0.2,0.3 -0.2,0.3 -0.3,0.2 -0.3,0.2 -0.2,0.3 -0.2,0.3 -0.3,0.2 -0.3,0.2 -0.2,0.3 -1.2,1.7 q -1.3,1.8 -1.6,2.8 l -0.2,1 -1,0.2 -1,0.3 -0.2,0.3 -0.3,0.2 -0.3,-1 q -0.2,-1 -3.2,-1.8 -3,-0.7 -8.5,-9.4 -5.5,-8.8 -11.5,-12.6 -6,-3.7 -18,-8.2 -12,-4.5 -28.5,-5 -16.5,-0.5 -23.5,1 -7,1.5 -28,11 -21,9.5 -38,17 -17,7.5 -28,7.8 -11,0.2 -11,1.2 0,1 -6.5,-1.2 -6.5,-2.3 -7.3,-1 -0.7,1.2 -0.4,2.7 l 0.2,1.5 -1,-0.2 -1,-0.3 -0.2,-0.3 -0.3,-0.2 -0.5,-1 q -0.5,-1 -16.2,-15.2 -15.8,-14.3 -19.3,-18.6 -3.5,-4.2 -8,-3.4 -4.5,0.7 -34.5,5.4 l -30,4.8 -16.5,-0.2 q -16.5,-0.3 -22.5,0.2 -6,0.5 -6.8,1.8 -0.7,1.2 -2.4,1.4 -1.8,0.3 -4.6,-3 -2.7,-3.2 -12,-13 -9.2,-9.7 -19.4,-22.4 -10.3,-12.8 -12,-15.3 -1.8,-2.5 -2.8,-2.5 -1,0 -6.2,-9.5 -5.3,-9.5 -7.6,-11.5 -2.2,-2 -2.2,-3 0,-1 -1,-1 -1,0 -1.2,-1.5 l -0.3,-1.5 -0.5,-1 -0.5,-1 -0.3,0.2 -0.2,0.3 h -1 l -0.2,-0.3 -0.3,-0.2 -0.5,-1 -0.5,-1 -0.3,0.2 -0.2,0.3 -1.5,0.3 -1.5,0.2 0.2,1 0.3,1 v 1 q 0,1 0.3,5 l 0.2,4 h -0.5 l -0.5,-1 -0.5,-1 -0.5,-1.5 -0.5,-1.5 -0.5,-1.5 -0.5,-1.5 -0.5,-1.5 q -0.5,-1.5 -1.5,-5 -1,-3.5 -1.5,-10 -0.5,-6.5 -2.2,-10.7 l -1.8,-4.3 -0.2,-0.3 -0.3,-0.2 -0.5,-2.5 -0.5,-2.5 -0.3,-1 -0.2,-1 h 2 l 0.2,1 0.3,1 0.3,0.2 0.2,0.3 0.2,0.3 0.3,0.2 0.3,0.2 0.2,0.3 0.2,0.3 0.3,0.2 0.3,0.2 0.2,0.3 3,1.5 q 3,1.5 4.5,2 l 1.5,0.5 1.5,0.5 1.5,0.5 2,0.3 2,0.2 0.2,-7.5 q 0.3,-7.5 0.8,-12 0.5,-4.5 5.5,-35 l 5,-30.5 0.5,-2 0.5,-2 0.5,-2 0.5,-2 h 0.5 l 0.2,1.5 0.3,1.5 v 6 l 0.3,1 q 0.2,1 -0.8,1 -1,0 -0.5,2 0.5,2 -0.5,2 -1,0 1.5,8.5 2.5,8.5 4,8.5 1.5,0 7.3,15.5 5.7,15.5 10.7,25.5 5,10 15.5,23.5 10.5,13.5 25.2,28.3 14.8,14.7 24.8,21.7 10,7 22,10.5 12,3.5 26,3.5 14,0 17.8,-3.7 3.7,-3.8 4,-4.8 0.2,-1 1.2,-1 1,0 2,-1.8 1,-1.7 2,-2 1,-0.2 6.8,-18.7 5.7,-18.5 6.2,-21 l 0.5,-2.5 0.5,-1.5 0.5,-1.5 0.3,-1 0.2,-1 0.2,-1.5 0.3,-1.5 0.5,-2 0.5,-2 0.3,-1.5 0.2,-1.5 0.5,-0.2 q 0.5,-0.3 0.5,-0.6 v -0.2 l 0.2,-1.5 q 0.3,-1.5 1.8,-6.5 1.5,-5 3.5,-15 2,-10 -3,-19.5 l -5,-9.5 -0.5,-1.5 -0.5,-1.5 -0.3,-0.2 -0.2,-0.3 -0.2,-0.3 -0.3,-0.2 v -2 l 0.3,0.2 0.2,0.3 0.2,0.3 0.3,0.2 0.3,-0.2 0.2,-0.3 1,-0.3 1,-0.2 v 0.5 l 0.5,0.3 0.5,0.2 v 0.5 l 0.2,0.3 0.3,0.2 0.3,0.2 0.2,0.3 0.2,0.3 0.3,0.2 0.3,0.2 0.2,0.3 0.2,0.3 0.3,0.2 7.7,9.8 q 7.8,9.7 8.8,10 l 1,0.2 -1,0.5 q -1,0.5 -10.8,48 -9.7,47.5 -10.2,52 l -0.5,4.5 v 5 l 0.3,1 0.2,1 h 2 l 0.2,-1 0.3,-1 0.5,-1 0.5,-1 0.5,-1 0.5,-1 0.5,-1 q 0.5,-1 2.2,-2.2 1.8,-1.3 5,-6 3.3,-4.8 18.3,-24.8 15,-20 29.5,-37.5 14.5,-17.5 24.8,-27 10.2,-9.5 10.2,-10.5 0,-1 1,-1 1,0 1.2,-1.5 0.3,-1.5 3,-4 2.8,-2.5 3.6,-4 l 0.7,-1.5 0.5,-1 0.5,-1 v -1 l -0.5,-1 -0.5,-1 -0.3,-0.2 -0.2,-0.3 -4.5,-0.3 -4.5,-0.2 v -0.5 l 1.5,-0.5 1.5,-0.5 2,-0.5 2,-0.5 36.2,-11.7 q 36.3,-11.8 37.8,-21.8 1.5,-10 1.8,-15 z m -148.6,239 -0.2,-1 1,0.2 1,0.3 0.2,0.3 0.3,0.2 0.3,0.2 0.2,0.3 0.2,0.3 0.3,0.2 v 2 l -0.3,-0.2 -0.2,-0.3 -1,-0.5 -1,-0.5 -0.2,-0.3 -0.3,-0.2 z m 17,5.2 q 0.3,-0.2 0.6,0 0.2,0.3 -0.3,0.3 -0.5,0 -0.3,-0.3 z"
       id="path14"
       inkscape:connector-curvature="0"
       style="fill:#d2d2d2;fill-rule:evenodd;stroke:#d2d2d2;stroke-width:0.5" />
    <path
       d="m 704.65,251.85 v -0.2 l 11.2,7.5 q 11.3,7.5 33,25.7 21.8,18.3 42,38.6 20.3,20.2 22,23 1.8,2.7 2,3 l 0.3,0.2 12.5,-9.5 q 12.5,-9.5 15.8,-13.3 3.2,-3.7 3.4,-4 l 0.3,-0.2 0.5,-1 0.5,-1 0.3,-1.5 0.2,-1.5 h 0.5 l 0.3,0.2 0.2,0.3 0.2,0.3 0.3,0.2 0.5,1.5 0.5,1.5 8.5,23 q 8.5,23 13.5,45.5 5,22.5 7,46 2,23.5 1,49 -1,25.5 -6,50.5 -5,25 -12,45.5 -7,20.5 -11,29 -4,8.5 -4.5,9.5 l -0.5,1 -0.5,1 -0.5,1 -0.5,1 -0.5,1 -0.5,1 -0.5,1 h -0.5 l -0.2,-2 -0.3,-2 -0.3,-0.2 -0.2,-0.3 -0.2,-0.3 -0.3,-0.2 -0.3,-0.2 -0.2,-0.3 1,-0.5 1,-0.5 -0.2,-0.3 -0.3,-0.2 -0.3,-0.2 q -0.2,-0.3 0.8,-0.8 1,-0.5 0.8,-2.8 l -0.3,-2.2 -0.3,0.2 -0.2,0.3 -0.2,0.3 -0.3,0.2 -0.5,1 -0.5,1 -0.3,-0.2 -0.2,-0.3 -0.2,-0.3 -0.3,-0.2 v -2 l 0.3,-0.2 0.2,-0.3 0.2,-0.3 0.3,-0.2 v -2 l -0.3,0.2 -0.2,0.3 -0.2,0.3 -0.3,0.2 -0.3,0.2 -0.2,0.3 -0.2,0.3 -0.3,0.2 -0.3,0.2 -0.2,0.3 -0.2,0.3 -0.3,0.2 -0.3,0.2 -0.2,0.3 -0.2,0.3 q -0.3,0.2 -11.8,16.7 -11.5,16.5 -30.5,39.5 l -19,23 -0.3,0.2 -0.2,0.3 -0.2,0.3 -0.3,0.2 -0.3,0.2 -0.2,0.3 -0.2,0.3 -0.3,0.2 -0.3,0.2 -0.2,0.3 -0.2,0.3 -0.3,0.2 -0.3,0.2 -0.2,0.3 -0.2,0.3 -0.3,0.2 -0.3,0.2 -0.2,0.3 -1,0.3 -1,0.2 v -2 l 1,-0.2 1,-0.3 -0.2,-0.3 -0.3,-0.2 h -0.5 v -0.5 l 0.5,-0.3 0.5,-0.2 v -0.5 l 0.5,-0.3 0.5,-0.2 v -0.5 l 0.5,-0.3 0.5,-0.2 v -0.5 l 0.5,-0.3 0.5,-0.2 0.2,-1 q 0.3,-1 6,-7.2 5.8,-6.3 22.8,-28.3 17,-22 27.2,-38.7 10.3,-16.8 10.8,-24.3 0.5,-7.5 -1.5,-18 -2,-10.5 -8,-30.5 -6,-20 -13.7,-37.5 l -7.8,-17.5 -1.5,0.2 q -1.5,0.3 -20,9.8 -18.5,9.5 -48,22.2 l -29.5,12.8 -8,-0.2 q -8,-0.3 -10.5,-1.8 -2.5,-1.5 -3.7,-3.8 -1.3,-2.2 -11.8,-15.7 -10.5,-13.5 -15,-22.5 -4.5,-9 -11.8,-23.8 -7.2,-14.7 -23.4,-42.4 l -16.3,-27.8 -0.3,-0.2 -0.2,-0.3 -0.2,-0.3 -0.3,-0.2 -0.3,-1 -0.2,-1 -1,-0.2 -1,-0.3 -0.2,-0.3 -0.3,-0.2 -0.3,0.2 -0.2,0.3 -1,0.3 -1,0.2 -0.2,1 -0.3,1 -0.5,1 q -0.5,1 -1,3 l -0.5,2 -0.5,1.5 -0.5,1.5 -0.5,-3 -0.5,-3 -0.5,2 q -0.5,2 -1,4.5 l -0.5,2.5 -0.5,-3.5 -0.5,-3.5 -0.5,2.5 -0.5,2.5 -1,1.5 q -1,1.5 -2.5,10 -1.5,8.5 -1.8,18.5 l -0.2,10 -0.5,-0.2 -0.5,-0.3 -0.2,-0.3 -0.3,-0.2 -0.5,1.5 -0.5,1.5 -0.3,-0.2 -0.2,-0.3 -0.2,-0.3 -0.3,-0.2 -0.5,-4 q -0.5,-4 -1.2,-13.5 l -0.8,-9.5 0.2,-3.5 q 0.3,-3.5 2.6,-61.5 l 2.2,-58 h 0.5 l 0.5,-1 0.5,-1 0.3,-0.2 0.2,-0.3 0.2,-0.3 0.3,-0.2 0.5,1 0.5,1 0.3,4 0.2,4 0.2,5 0.3,5 0.3,-1.5 0.2,-1.5 1,0.2 1,0.3 h 9.5 q 9.5,0 16.7,6.3 7.3,6.2 14.6,12.4 7.2,6.3 27.7,18.8 20.5,12.5 26,14.5 5.5,2 9,2 h 3.5 l 1,-0.5 1,-0.5 0.2,-0.3 0.3,-0.2 0.5,-2 q 0.5,-2 0,-9 -0.5,-7 -6,-27.5 -5.5,-20.5 -6.5,-29.5 -1,-9 2,-19.5 3,-10.5 1.3,-11.7 -1.8,-1.3 -1.6,-3 0.3,-1.8 -3.4,-2.6 l -3.8,-0.7 0.2,-0.3 0.3,-0.2 0.3,-0.2 0.2,-0.3 2.5,-0.5 2.5,-0.5 -1,-0.5 -1,-0.5 2.5,-0.5 q 2.5,-0.5 5.5,-1 l 3,-0.5 z"
       id="path16"
       inkscape:connector-curvature="0"
       style="fill:#dadada;fill-rule:evenodd;stroke:#dadada;stroke-width:0.5" />
    <path
       d="m 841.45,611.45 0.2,-0.3 0.2,-0.3 0.3,-0.2 v 2 l -0.3,0.2 -0.2,0.3 -0.2,0.3 -0.3,0.2 v 2 l 0.3,0.2 0.2,0.3 0.2,0.3 0.3,0.2 0.5,-1 0.5,-1 0.3,-0.2 0.2,-0.3 0.2,-0.3 0.3,-0.2 0.3,2.2 q 0.2,2.3 -0.8,2.8 -1,0.5 -0.8,0.8 l 0.3,0.2 0.3,0.2 0.2,0.3 -1,0.5 -1,0.5 0.2,0.3 0.3,0.2 0.3,0.2 0.2,0.3 0.2,0.3 0.3,0.2 0.3,2 0.2,2 -0.2,0.5 q -0.3,0.5 -5.8,10 -5.5,9.5 -22.2,33.5 -16.8,24 -17.8,24 -1,0 -8.2,8.5 -7.3,8.5 -23.6,23.3 -16.2,14.7 -36.7,28.7 -20.5,14 -43.5,25 -23,11 -45.5,18 -22.5,7 -46,11 -23.5,4 -52.5,4.5 -29,0.5 -49,-2 -20,-2.5 -45,-9.5 -25,-7 -51.5,-18 -26.5,-11 -40,-19.5 l -13.5,-8.5 -0.2,-0.3 -0.3,-0.2 -0.3,-0.2 -0.2,-0.3 -0.2,-0.3 -0.3,-0.2 -0.3,-0.2 -0.2,-0.3 -0.2,-0.3 -0.3,-0.2 -0.3,-0.2 -0.2,-0.3 -1,-0.3 -1,-0.2 -0.2,-1 -0.3,-1 -0.3,-0.2 -0.2,-0.3 v -0.5 h 1.5 l 0.3,0.2 0.2,0.3 1,0.5 1,0.5 0.2,0.3 0.3,0.2 0.3,0.2 0.2,0.3 1,0.5 1,0.5 1,0.5 q 1,0.5 25.5,11.5 24.5,11 54,20 29.5,9 38,9.5 8.5,0.5 12,-1.2 3.5,-1.8 7.5,-7.6 4,-5.7 16.8,-26.4 12.7,-20.8 14.7,-26.8 2,-6 -13.3,-16.2 -15.2,-10.3 -36.7,-27.6 l -21.5,-17.2 -0.2,-0.5 q -0.3,-0.5 -0.6,-0.5 h -0.2 l -0.2,-0.5 q -0.3,-0.5 -0.6,-0.5 h -0.2 v -0.5 l 1,-0.3 1,-0.2 -0.2,-1 -0.3,-1 -0.3,-0.2 -0.2,-0.3 -0.2,-0.3 -0.3,-0.2 -0.3,-0.2 -0.2,-0.3 -1,-0.5 -1,-0.5 -0.2,-0.3 -0.3,-0.2 -0.3,-1 -0.2,-1 1,0.2 1,0.3 0.2,0.3 0.3,0.2 0.3,0.2 0.2,0.3 0.2,0.3 0.3,0.2 0.3,0.2 0.2,0.3 6,2.5 q 6,2.5 6.8,1.8 0.7,-0.8 1.4,0 0.8,0.7 11.8,0.2 11,-0.5 28,-8 17,-7.5 38,-17 21,-9.5 28,-11 7,-1.5 23.5,-1 16.5,0.5 28.5,5 12,4.5 18,8.2 6,3.8 11.5,12.6 5.5,8.7 8.5,9.4 3,0.8 3.2,1.8 l 0.3,1 0.3,-0.2 0.2,-0.3 1,-0.3 1,-0.2 0.2,-1 q 0.3,-1 1.6,-2.8 l 1.2,-1.7 0.2,-0.3 0.3,-0.2 0.3,-0.2 0.2,-0.3 0.2,-0.3 0.3,-0.2 0.3,-0.2 0.2,-0.3 0.2,-0.3 0.3,-0.2 0.3,-1 0.2,-1 h 2 l -0.2,1 -0.3,1 -0.5,1 -0.5,1 -0.5,1.5 -0.5,1.5 -3,10 q -3,10 7.7,14.8 10.8,4.7 34.8,11.7 24,7 36,8.5 12,1.5 18,-2 6,-3.5 10.5,-8 4.5,-4.5 5,-4.8 l 0.5,-0.2 v -0.5 l 0.5,-0.3 0.5,-0.2 v -0.5 l 0.5,-0.3 0.5,-0.2 v -0.5 l 0.5,-0.3 0.5,-0.2 v -0.5 l 0.5,-0.3 0.5,-0.2 h 1.2 q 1.3,0 16.8,-18 15.5,-18 30,-38.5 14.5,-20.5 14.8,-20.7 l 0.2,-0.3 0.2,-0.3 0.3,-0.2 0.3,-0.2 0.2,-0.3 0.2,-0.3 0.3,-0.2 0.3,-0.2 0.2,-0.3 0.2,-0.3 0.3,-0.2 z m -69.3,85.4 1.5,0.3 -0.2,0.3 -0.3,0.2 -0.3,0.2 -0.2,0.3 -1,0.3 -1,0.2 v -2 z"
       id="path18"
       inkscape:connector-curvature="0"
       style="fill:#b1b1b1;fill-rule:evenodd;stroke:#b1b1b1;stroke-width:0.5" />
    <path
       d="m 687.15,186.15 -8,-22.5 8.7,1.2 q 8.8,1.3 9.8,1.8 1,0.5 3,0.8 l 2,0.2 v 0.2 q 0,0.3 0.5,0.6 l 0.5,0.2 16.5,7.8 q 16.5,7.7 32.5,20.7 16,13 31.2,28.3 15.3,15.2 29.8,34.7 14.5,19.5 24.5,37.5 10,18 10.3,19 l 0.2,1 -0.2,1.5 -0.3,1.5 -0.5,1 -0.5,1 -0.3,0.2 q -0.2,0.3 -3.4,4 -3.3,3.8 -15.8,13.3 l -12.5,9.5 -0.3,-0.2 q -0.2,-0.3 -2,-3 -1.7,-2.8 -22,-23 -20.2,-20.3 -42,-38.6 -21.7,-18.2 -33,-25.7 l -11.2,-7.5 h -0.5 l -0.5,-1.5 q -0.5,-1.5 -4.5,-21.5 -4,-20 -12,-42.5 z"
       id="path20"
       inkscape:connector-curvature="0"
       style="fill:#0f0f0f;fill-rule:evenodd;stroke:#0f0f0f;stroke-width:0.5" />
    <path
       d="m 345.85,379.15 -0.2,-5.5 13.8,22.5 q 13.7,22.5 14,23.5 l 0.2,1 -0.5,-0.2 q -0.5,-0.3 -1,-0.3 -0.5,0 -3.3,-1.3 l -2.7,-1.2 -0.3,-0.2 -0.2,-0.3 -0.2,-0.3 -0.3,-0.2 -3.7,-4.8 q -3.8,-4.7 -4.8,-5 -1,-0.2 -1,-1.7 0,-1.5 -0.8,-2 -0.7,-0.5 -1.4,-2.5 -0.8,-2 -1.8,-2 -1,0 -1,-1.5 0,-1.5 -1,-1.5 -1,0 -1.5,-2.5 -0.5,-2.5 -1.5,-2.5 -1,0 -1.5,-0.8 -0.5,-0.7 -2.5,-2.2 -2,-1.5 -7,-1 -5,0.5 -12,5 -7,4.5 -10.2,9.2 -3.3,4.8 -4.3,9.3 -1,4.5 -1,16 0,11.5 3.5,39 3.5,27.5 10,39.5 6.5,12 17.2,21.8 10.8,9.7 22.3,16.2 11.5,6.5 14,7.5 2.5,1 8.5,0.5 6,-0.5 8.5,-2.5 2.5,-2 3.5,-3.7 1,-1.8 2.5,-1.8 1.5,0 2.7,-2.5 1.3,-2.5 1.8,-3.5 l 0.5,-1 0.3,-0.2 0.2,-0.3 0.2,-0.3 0.3,-0.2 0.3,-0.2 0.2,-0.3 0.2,-0.3 0.3,-0.2 0.3,-0.2 0.2,-0.3 0.2,-0.3 0.3,-0.2 0.3,-0.2 0.2,-0.3 0.2,-0.3 0.3,-0.2 0.3,-1 0.2,-1 h 2 l -0.2,1 -0.3,1 -0.5,1 -0.5,1 -0.5,2 -0.5,2 -0.3,1.5 -0.2,1.5 h -0.5 l -0.3,0.2 -0.2,0.3 -0.2,0.3 -0.3,0.2 -0.3,0.2 -0.2,0.3 -0.2,0.3 -0.3,0.2 -0.3,0.2 -0.2,0.3 -0.2,0.3 -0.3,0.2 -0.3,0.2 -0.2,0.3 -0.2,0.3 -0.3,0.2 -0.3,0.2 -0.2,0.3 -0.2,0.3 -0.3,0.2 -0.5,1 q -0.5,1 -1,1.5 -0.5,0.5 -5.8,4.7 -5.2,4.3 -10.7,4.8 -5.5,0.5 -14,-3 -8.5,-3.5 -22,-12.5 -13.5,-9 -21.3,-17.7 -7.7,-8.8 -12.7,-18.8 -5,-10 -8,-29 -3,-19 -4,-41 -1,-22 0.5,-27.5 1.5,-5.5 6.8,-10.7 5.2,-5.3 16.2,-10.8 11,-5.5 15.2,-3.8 l 4.3,1.8 0.3,0.2 0.2,0.3 h 2 l -0.2,-0.3 -0.3,-0.2 z"
       id="path22"
       inkscape:connector-curvature="0"
       style="fill:#fafafa;fill-rule:evenodd;stroke:#fafafa;stroke-width:0.5" />
    <path
       d="m 606.65,392.45 1,-0.3 0.2,-0.3 0.3,-0.2 0.3,0.2 0.2,0.3 1,0.3 1,0.2 0.2,1 0.3,1 0.3,0.2 0.2,0.3 0.2,0.3 0.3,0.2 16.3,27.8 q 16.2,27.7 23.4,42.4 7.3,14.8 11.8,23.8 4.5,9 15,22.5 10.5,13.5 11.8,15.7 1.2,2.3 3.7,3.8 2.5,1.5 10.5,1.8 l 8,0.2 v 0.5 l -1,0.5 -1,0.5 -1,0.5 -1,0.5 -1.5,0.5 -1.5,0.5 -1,0.5 q -1,0.5 -6.2,2.8 -5.3,2.2 -7.3,10.2 l -2,8 -0.5,2.5 -0.5,2.5 -0.3,2 -0.2,2 h -0.5 l -0.5,-11 q -0.5,-11 -1.5,-12.5 -1,-1.5 -8.5,-9.5 -7.5,-8 -42.2,-38.8 -34.8,-30.7 -36.3,-33.4 -1.5,-2.8 -0.5,-3 1,-0.3 0.5,-0.8 -0.5,-0.5 -0.7,-3.8 -0.3,-3.2 -3,-6.7 l -2.8,-3.5 0.2,-10 q 0.3,-10 1.8,-18.5 1.5,-8.5 2.5,-10 l 1,-1.5 0.5,-2.5 0.5,-2.5 0.5,3.5 0.5,3.5 0.5,-2.5 q 0.5,-2.5 1,-4.5 l 0.5,-2 0.5,3 0.5,3 0.5,-1.5 0.5,-1.5 0.5,-2 q 0.5,-2 1,-3 l 0.5,-1 0.3,-1 0.2,-1 z"
       id="path24"
       inkscape:connector-curvature="0"
       style="fill:#d0d0d0;fill-rule:evenodd;stroke:#d0d0d0;stroke-width:0.5" />
    <path
       d="m 703.65,167.65 v 1 l -1,-0.2 q -1,-0.3 -3.5,-1.3 -2.5,-1 -11.3,-2.3 l -8.7,-1.2 8,22.5 q 8,22.5 12,42.5 4,20 4.5,21.5 l 0.5,1.5 h 0.5 v 0.5 l -3,0.5 q -3,0.5 -5.5,1 l -2.5,0.5 1,0.5 1,0.5 -2.5,0.5 -2.5,0.5 -0.2,0.3 -0.3,0.2 -0.3,0.2 -0.2,0.3 3.8,0.7 q 3.7,0.8 3.4,2.6 -0.2,1.7 1.6,3 1.7,1.2 -1.3,11.7 -3,10.5 -2,19.5 1,9 6.5,29.5 5.5,20.5 6,27.5 0.5,7 0,9 l -0.5,2 -0.3,0.2 -0.2,0.3 -1,0.5 -1,0.5 h -3.5 q -3.5,0 -9,-2 -5.5,-2 -26,-14.5 -20.5,-12.5 -27.7,-18.8 -7.3,-6.2 -14.6,-12.4 -7.2,-6.3 -16.7,-6.3 h -9.5 l -1,-0.3 -1,-0.2 -0.2,1.5 -0.3,1.5 -0.3,-5 -0.2,-5 h 0.5 l 0.5,1 0.5,1 0.3,-0.2 0.2,-0.3 0.2,-0.3 0.3,-0.2 1.3,0.8 q 1.2,0.7 10.2,-0.3 9,-1 32.5,3 23.5,4 29,4 h 5.5 l 0.2,-0.3 0.3,-0.2 0.3,-0.2 0.2,-0.3 0.2,-0.3 0.3,-0.2 0.3,-0.2 0.2,-0.3 0.2,-0.3 0.3,-0.2 v -7 q 0,-7 0,-14 0,-7 3.3,-11.2 l 3.2,-4.3 0.2,-0.3 0.3,-0.2 v -4 l -0.3,-0.2 -0.2,-0.3 -2.5,-0.5 -2.5,-0.5 -3,-0.5 q -3,-0.5 -10.5,0 l -7.5,0.5 -1,0.3 -1,0.2 0.2,-1 0.3,-1 v -1 l -0.3,-0.2 -0.2,-0.3 0.2,-0.3 0.3,-0.2 0.3,-0.2 0.2,-0.3 0.2,-0.3 0.3,-0.2 0.5,-1 0.5,-1 0.3,-0.2 0.2,-0.3 0.2,-0.3 0.3,-0.2 0.3,-0.2 0.2,-0.3 0.2,-0.3 0.3,-0.2 0.3,-0.2 0.2,-0.3 0.2,-0.3 q 0.3,-0.2 5,-3.4 4.8,-3.3 10.3,-7.3 5.5,-4 6.3,-8.3 0.7,-4.2 -4.3,-15.2 -5,-11 -12,-19 -7,-8 -21.3,-16.2 -14.2,-8.3 -39.2,-17.3 -25,-9 -50,-14 -25,-5 -52,-7 -27,-2 -34.5,0.5 -7.5,2.5 -14.5,3 -7,0.5 -9,1.5 -2,1 -8.5,5.5 -6.5,4.5 -11,4.5 -4.5,0 -21.5,2.7 l -17,2.8 -1.5,0.2 -1.5,0.3 -2,0.5 -2,0.5 -2,0.5 q -2,0.5 -18.5,5.5 l -16.5,5 -1.5,0.5 -1.5,0.5 -1,0.5 -1,0.5 -0.2,0.3 -0.3,0.2 -0.3,-0.2 -0.2,-0.3 -0.2,-0.3 -0.3,-0.2 -0.3,-0.2 -0.2,-0.3 1,-0.5 1,-0.5 1,-0.5 1,-0.5 0.2,-0.3 0.3,-0.2 0.3,-0.2 0.2,-0.3 1.5,-0.5 1.5,-0.5 16,-6.5 q 16,-6.5 53,-18.5 37,-12 57,-18.5 20,-6.5 41,-11 21,-4.5 31.5,-4 10.5,0.5 11.5,1 1,0.5 1.5,1.2 0.5,0.8 3.5,0.6 3,-0.3 2,-0.8 -1,-0.5 12,1 13,1.5 36.5,7.5 23.5,6 52,17.5 28.5,11.5 33.3,14.2 4.7,2.8 6,3.3 1.2,0.5 1.2,1.5 z"
       id="path26"
       inkscape:connector-curvature="0"
       style="fill:#e3e3e3;fill-rule:evenodd;stroke:#e3e3e3;stroke-width:0.5" />
    <path
       d="m 231.45,305.45 0.2,-0.3 0.2,-0.3 0.3,-0.2 0.3,7.5 0.2,7.5 1.2,19 q 1.3,19 4.8,34.5 3.5,15.5 3.5,20 0,4.5 -3,11 -3,6.5 -6.5,19.5 -3.5,13 -3.8,15 l -0.2,2 h -0.5 l -0.5,2 -0.5,2 -0.5,2 -0.5,2 -5,30.5 q -5,30.5 -5.5,35 -0.5,4.5 -0.8,12 l -0.2,7.5 -2,-0.2 -2,-0.3 -1.5,-0.5 -1.5,-0.5 -1.5,-0.5 q -1.5,-0.5 -4.5,-2 l -3,-1.5 -0.2,-0.3 -0.3,-0.2 -0.3,-0.2 -0.2,-0.3 -0.2,-0.3 -0.3,-0.2 -0.3,-0.2 -0.2,-0.3 -0.2,-0.3 -0.3,-0.2 -0.3,-0.2 q -0.2,-0.3 -0.7,-0.6 l -0.5,-0.2 -0.2,-0.5 q -0.3,-0.5 -0.6,-0.5 h -0.2 l -0.2,-0.5 q -0.3,-0.5 -1.8,-10 -1.5,-9.5 -2,-37.5 -0.5,-28 3.5,-56 4,-28 10,-49.5 6,-21.5 14.3,-40.3 l 8.2,-18.7 0.2,-0.3 0.3,-0.2 0.5,-1 0.5,-1 0.3,-0.2 0.2,-0.3 0.2,-0.3 0.3,-0.2 0.3,-0.2 0.2,-0.3 1,-0.5 1,-0.5 0.2,-0.3 0.3,-0.2 z"
       id="path28"
       inkscape:connector-curvature="0"
       style="fill:#0f0f0f;fill-rule:evenodd;stroke:#0f0f0f;stroke-width:0.5" />
    <path
       d="m 501.15,474.85 1.5,-0.2 4.5,0.2 4.5,0.3 0.2,0.3 0.3,0.2 0.5,1 0.5,1 v 1 l -0.5,1 -0.5,1 -0.7,1.5 q -0.8,1.5 -3.6,4 -2.7,2.5 -3,4 -0.2,1.5 -1.2,1.5 -1,0 -1,1 0,1 -10.2,10.5 -10.3,9.5 -24.8,27 -14.5,17.5 -29.5,37.5 -15,20 -18.3,24.8 -3.2,4.7 -5,6 -1.7,1.2 -2.2,2.2 l -0.5,1 -0.5,1 -0.5,1 -0.5,1 -0.5,1 -0.3,1 -0.2,1 h -2 l -0.2,-1 -0.3,-1 v -5 l 0.5,-4.5 q 0.5,-4.5 10.2,-52 9.8,-47.5 10.8,-48 l 1,-0.5 35,-10.2 q 35,-10.3 36.5,-10.6 z"
       id="path30"
       inkscape:connector-curvature="0"
       style="fill:#eeeeee;fill-rule:evenodd;stroke:#eeeeee;stroke-width:0.5" />
    <path
       d="m 208.85,557.85 0.3,-0.2 0.5,1 0.5,1 0.3,0.2 0.2,0.3 h 1 l 0.2,-0.3 0.3,-0.2 0.5,1 0.5,1 1.3,0.5 q 1.2,0.5 1.2,1.5 0,1 1,1 1,0 7.5,12.5 6.5,12.5 7.5,12.5 1,0 2.8,2.5 1.7,2.5 12,15.3 10.2,12.7 19.4,22.4 9.3,9.8 12,13 2.8,3.3 4.6,3 1.7,-0.2 2.4,-1.4 0.8,-1.3 6.8,-1.8 6,-0.5 22.5,-0.2 l 16.5,0.2 v 0.5 l -4.5,0.5 -4.5,0.5 -5,0.5 q -5,0.5 -16.5,1.2 l -11.5,0.8 1.8,9.5 q 1.7,9.5 10.7,30.5 9,21 19.7,38.8 10.8,17.7 11,18 l 0.3,0.2 0.3,0.2 0.2,0.3 0.2,0.3 0.3,0.2 0.3,0.2 0.2,0.3 0.2,0.3 0.3,0.2 0.3,0.2 0.2,0.3 0.2,0.3 0.3,0.2 0.3,0.2 0.2,0.3 0.2,0.3 0.3,0.2 0.3,0.2 0.2,0.3 0.2,0.3 0.3,0.2 0.3,0.5 0.2,0.5 h -1 l -1,-0.2 -1,-0.3 -1.5,-0.5 -1.5,-0.5 -1,-0.5 -1,-0.5 -1,-0.5 q -1,-0.5 -16,-13 -15,-12.5 -24.2,-22.8 -9.3,-10.2 -25.8,-32.7 -16.5,-22.5 -26.5,-41 -10,-18.5 -19.7,-42.5 l -9.8,-24 -0.2,-4 q -0.3,-4 -0.3,-5 v -1 l -0.3,-1 -0.2,-1 1.5,-0.2 1.5,-0.3 z"
       id="path32"
       inkscape:connector-curvature="0"
       style="fill:#cccccc;fill-rule:evenodd;stroke:#cccccc;stroke-width:0.5" />
  </g>
</svg>
