<?xml version="1.0" standalone="no"?>
<!DOCTYPE svg PUBLIC "-//W3C//DTD SVG 20010904//EN"
 "http://www.w3.org/TR/2001/REC-SVG-20010904/DTD/svg10.dtd">
<svg version="1.0" xmlns="http://www.w3.org/2000/svg"
 width="700.000000pt" height="700.000000pt" viewBox="0 0 700.000000 700.000000"
 preserveAspectRatio="xMidYMid meet">
<metadata>
Created by potrace 1.11, written by Peter Selinger 2001-2013
</metadata>
<g transform="translate(0.000000,700.000000) scale(0.100000,-0.100000)"
fill="#000000" stroke="none">
<path d="M3355 6975 c-66 -13 -149 -30 -185 -39 -36 -9 -76 -19 -90 -22 -52
-11 -283 -83 -720 -225 -102 -33 -194 -64 -205 -69 -26 -10 -138 -48 -195 -65
-51 -15 -276 -101 -293 -112 -7 -4 -16 -8 -22 -10 -27 -6 -100 -35 -105 -42
-3 -4 -13 -10 -23 -14 -10 -4 -16 -11 -12 -17 4 -6 16 -5 33 2 15 5 47 16 72
23 25 7 113 33 195 58 83 25 163 48 180 52 29 6 29 6 11 -14 -10 -11 -35 -25
-55 -32 -33 -11 -126 -50 -161 -68 -106 -55 -190 -109 -197 -126 -3 -8 -9 -13
-13 -10 -4 3 -29 -15 -54 -39 -26 -24 -68 -58 -94 -77 -171 -121 -377 -308
-482 -438 -19 -24 -40 -49 -45 -55 -72 -78 -286 -389 -338 -493 -18 -34 -36
-55 -57 -65 -22 -9 -33 -23 -41 -52 -14 -52 -20 -41 -21 38 -1 37 -4 69 -9 71
-16 10 -62 -54 -100 -140 -41 -93 -130 -311 -134 -329 -1 -6 -5 -18 -8 -26
-41 -108 -91 -313 -127 -520 -32 -186 -35 -206 -47 -335 -10 -104 -10 -543 0
-664 9 -110 36 -253 49 -262 6 -3 9 -9 9 -13 -1 -3 5 -30 14 -59 8 -29 17 -78
21 -110 6 -71 36 -169 71 -239 15 -29 28 -57 29 -63 5 -25 140 -339 194 -451
151 -312 444 -730 670 -954 139 -139 344 -305 388 -315 18 -3 32 -14 35 -26 3
-10 12 -19 21 -19 9 0 16 -4 16 -9 0 -21 272 -175 435 -247 33 -14 72 -32 88
-40 15 -9 27 -12 27 -8 0 3 6 2 13 -4 20 -16 281 -113 427 -157 117 -36 345
-92 401 -99 25 -3 52 -7 60 -10 16 -6 68 -12 184 -23 96 -9 504 -9 630 0 143
9 294 29 365 47 19 5 53 12 75 15 126 19 455 121 627 195 117 51 162 71 178
80 8 4 59 32 114 60 151 79 442 271 536 353 14 12 52 44 85 70 98 80 400 393
457 474 29 41 62 87 74 101 40 52 224 330 224 340 0 6 4 12 8 14 5 2 23 30 42
63 18 33 37 62 40 65 8 6 79 155 110 229 33 81 110 301 105 301 -2 0 2 15 10
33 13 30 57 198 69 257 2 14 11 55 20 91 9 36 18 84 20 105 2 21 6 50 9 64 36
153 43 675 13 935 -14 115 -18 146 -31 215 -8 41 -17 91 -20 110 -3 19 -17 78
-31 130 -14 52 -27 104 -30 114 -2 11 -20 69 -41 130 -20 61 -38 113 -38 116
-1 3 -4 12 -8 20 -3 8 -16 44 -28 80 -12 36 -25 70 -29 75 -3 6 -13 30 -20 55
-8 25 -17 47 -20 50 -4 3 -31 50 -60 105 -88 164 -229 387 -307 485 -192 243
-348 407 -543 574 -148 126 -284 216 -443 291 -70 33 -127 65 -127 70 0 25
-378 187 -675 290 -78 26 -293 89 -345 99 -14 3 -52 12 -85 20 -33 8 -80 17
-105 21 -151 20 -198 24 -222 19 -15 -3 -37 0 -50 7 -41 22 -230 19 -363 -6z"/>
</g>
</svg>
